<mxfile host="app.diagrams.net" agent="Mozilla/5.0 (Macintosh; Intel Mac OS X 10_15_7) AppleWebKit/537.36 (KHTML, like Gecko) Chrome/137.0.0.0 Safari/537.36" version="27.2.0">
  <diagram name="Page-1" id="0QOyUkpBbnDS7t_BQTro">
    <mxGraphModel grid="0" page="1" gridSize="10" guides="1" tooltips="1" connect="1" arrows="1" fold="1" pageScale="1" pageWidth="1654" pageHeight="2336" math="0" shadow="0">
      <root>
        <mxCell id="0" />
        <mxCell id="1" parent="0" />
        <mxCell id="Sh905TkL9wa8EV8ZEFPq-2" value="Article 1 URL" style="html=1;shadow=0;dashed=0;shape=mxgraph.bootstrap.rrect;rSize=5;strokeColor=#6c8ebf;strokeWidth=2;fillColor=#dae8fc;whiteSpace=wrap;align=left;verticalAlign=middle;spacingLeft=10;fontSize=13;spacing=10;fontFamily=Times New Roman;" vertex="1" parent="1">
          <mxGeometry x="55" y="190" width="129" height="32" as="geometry" />
        </mxCell>
        <mxCell id="Sh905TkL9wa8EV8ZEFPq-3" value="Article 2 URL" style="html=1;shadow=0;dashed=0;shape=mxgraph.bootstrap.rrect;rSize=5;strokeColor=#6c8ebf;strokeWidth=2;fillColor=#dae8fc;whiteSpace=wrap;align=left;verticalAlign=middle;spacingLeft=10;fontSize=13;spacing=10;fontFamily=Times New Roman;" vertex="1" parent="1">
          <mxGeometry x="55" y="234" width="129" height="32" as="geometry" />
        </mxCell>
        <mxCell id="Sh905TkL9wa8EV8ZEFPq-4" value="Article 3 URL" style="html=1;shadow=0;dashed=0;shape=mxgraph.bootstrap.rrect;rSize=5;strokeColor=#6c8ebf;strokeWidth=2;fillColor=#dae8fc;whiteSpace=wrap;align=left;verticalAlign=middle;spacingLeft=10;fontSize=13;spacing=10;fontFamily=Times New Roman;" vertex="1" parent="1">
          <mxGeometry x="55" y="278" width="129" height="32" as="geometry" />
        </mxCell>
        <mxCell id="Sh905TkL9wa8EV8ZEFPq-5" value="Article 298 URL" style="html=1;shadow=0;dashed=0;shape=mxgraph.bootstrap.rrect;rSize=5;strokeColor=#6c8ebf;strokeWidth=2;fillColor=#dae8fc;whiteSpace=wrap;align=left;verticalAlign=middle;spacingLeft=10;fontSize=13;spacing=10;fontFamily=Times New Roman;" vertex="1" parent="1">
          <mxGeometry x="55" y="390" width="129" height="32" as="geometry" />
        </mxCell>
        <mxCell id="Sh905TkL9wa8EV8ZEFPq-7" value="" style="endArrow=none;dashed=1;html=1;dashPattern=1 3;strokeWidth=2;rounded=0;fillColor=#dae8fc;strokeColor=#6c8ebf;" edge="1" parent="1">
          <mxGeometry width="50" height="50" relative="1" as="geometry">
            <mxPoint x="116" y="386" as="sourcePoint" />
            <mxPoint x="116" y="312" as="targetPoint" />
          </mxGeometry>
        </mxCell>
        <mxCell id="Sh905TkL9wa8EV8ZEFPq-10" value=".py" style="shadow=0;dashed=0;html=1;strokeColor=none;fillColor=#4495D1;labelPosition=center;verticalLabelPosition=middle;verticalAlign=middle;align=center;outlineConnect=0;shape=mxgraph.veeam.2d.file;fontFamily=Times New Roman;" vertex="1" parent="1">
          <mxGeometry x="304" y="284" width="38" height="50.4" as="geometry" />
        </mxCell>
        <mxCell id="Sh905TkL9wa8EV8ZEFPq-13" value="" style="strokeWidth=2;html=1;shape=mxgraph.flowchart.annotation_1;align=left;pointerEvents=1;direction=west;fillColor=#dae8fc;strokeColor=#6c8ebf;" vertex="1" parent="1">
          <mxGeometry x="184" y="207" width="20" height="199" as="geometry" />
        </mxCell>
        <mxCell id="Sh905TkL9wa8EV8ZEFPq-15" value="" style="edgeStyle=elbowEdgeStyle;fontSize=12;html=1;endArrow=blockThin;endFill=1;rounded=0;fillColor=#dae8fc;strokeColor=#6c8ebf;strokeWidth=2;elbow=vertical;" edge="1" parent="1">
          <mxGeometry width="160" relative="1" as="geometry">
            <mxPoint x="204" y="310" as="sourcePoint" />
            <mxPoint x="305" y="310.3" as="targetPoint" />
          </mxGeometry>
        </mxCell>
        <mxCell id="Sh905TkL9wa8EV8ZEFPq-18" value="Filter &amp;amp;&lt;br&gt;Scrape" style="edgeLabel;html=1;align=center;verticalAlign=middle;resizable=0;points=[];fontSize=13;fontStyle=0;fontFamily=Times New Roman;" vertex="1" connectable="0" parent="Sh905TkL9wa8EV8ZEFPq-15">
          <mxGeometry x="-0.309" y="-1" relative="1" as="geometry">
            <mxPoint x="9" y="-1" as="offset" />
          </mxGeometry>
        </mxCell>
        <mxCell id="Sh905TkL9wa8EV8ZEFPq-16" value="" style="edgeStyle=elbowEdgeStyle;fontSize=12;html=1;endArrow=blockThin;endFill=1;rounded=0;fillColor=#dae8fc;strokeColor=#6c8ebf;strokeWidth=2;" edge="1" parent="1">
          <mxGeometry width="160" relative="1" as="geometry">
            <mxPoint x="342" y="310" as="sourcePoint" />
            <mxPoint x="420" y="310" as="targetPoint" />
          </mxGeometry>
        </mxCell>
        <mxCell id="Sh905TkL9wa8EV8ZEFPq-17" value="" style="edgeStyle=elbowEdgeStyle;fontSize=12;html=1;endArrow=blockThin;endFill=1;rounded=0;fillColor=#dae8fc;strokeColor=#6c8ebf;strokeWidth=2;elbow=vertical;" edge="1" parent="1">
          <mxGeometry width="160" relative="1" as="geometry">
            <mxPoint x="458" y="310" as="sourcePoint" />
            <mxPoint x="564" y="310" as="targetPoint" />
          </mxGeometry>
        </mxCell>
        <mxCell id="Sh905TkL9wa8EV8ZEFPq-19" value="&lt;font&gt;&lt;span&gt;Manual&lt;br&gt;Cleaning&lt;/span&gt;&lt;/font&gt;" style="edgeLabel;html=1;align=center;verticalAlign=middle;resizable=0;points=[];fontSize=13;fontStyle=0;fontFamily=Times New Roman;" vertex="1" connectable="0" parent="Sh905TkL9wa8EV8ZEFPq-17">
          <mxGeometry x="-0.0721" y="5" relative="1" as="geometry">
            <mxPoint y="5" as="offset" />
          </mxGeometry>
        </mxCell>
        <mxCell id="Sh905TkL9wa8EV8ZEFPq-21" value="&lt;font style=&quot;font-size: 13px;&quot; face=&quot;Times New Roman&quot;&gt;Google Translator&lt;/font&gt;" style="dashed=0;outlineConnect=0;html=1;align=center;labelPosition=center;verticalLabelPosition=bottom;verticalAlign=top;shape=mxgraph.webicons.translate;gradientColor=#DFDEDE;strokeWidth=53;" vertex="1" parent="1">
          <mxGeometry x="687" y="210" width="40" height="40" as="geometry" />
        </mxCell>
        <mxCell id="Sh905TkL9wa8EV8ZEFPq-23" value="&lt;font style=&quot;font-size: 13px;&quot; face=&quot;Times New Roman&quot;&gt;Manual Translation&lt;/font&gt;" style="sketch=0;points=[[0,0,0],[0.25,0,0],[0.5,0,0],[0.75,0,0],[1,0,0],[0,1,0],[0.25,1,0],[0.5,1,0],[0.75,1,0],[1,1,0],[0,0.25,0],[0,0.5,0],[0,0.75,0],[1,0.25,0],[1,0.5,0],[1,0.75,0]];outlineConnect=0;fontColor=#232F3E;fillColor=#01A88D;strokeColor=#ffffff;dashed=0;verticalLabelPosition=bottom;verticalAlign=top;align=center;html=1;fontSize=12;fontStyle=0;shape=mxgraph.aws4.resourceIcon;resIcon=mxgraph.aws4.translate;" vertex="1" parent="1">
          <mxGeometry x="687" y="123" width="40" height="40" as="geometry" />
        </mxCell>
        <mxCell id="Sh905TkL9wa8EV8ZEFPq-26" value="" style="edgeStyle=elbowEdgeStyle;fontSize=12;html=1;endArrow=blockThin;endFill=1;rounded=0;fillColor=#dae8fc;strokeColor=#6c8ebf;strokeWidth=2;exitX=0.895;exitY=0.44;exitDx=0;exitDy=0;exitPerimeter=0;" edge="1" parent="1" source="Sh905TkL9wa8EV8ZEFPq-43" target="Sh905TkL9wa8EV8ZEFPq-31">
          <mxGeometry width="160" relative="1" as="geometry">
            <mxPoint x="602" y="310" as="sourcePoint" />
            <mxPoint x="844" y="397" as="targetPoint" />
          </mxGeometry>
        </mxCell>
        <mxCell id="Sh905TkL9wa8EV8ZEFPq-28" value="" style="endArrow=classic;html=1;rounded=0;fillColor=#dae8fc;strokeColor=#6c8ebf;strokeWidth=2;" edge="1" parent="1" target="Sh905TkL9wa8EV8ZEFPq-21">
          <mxGeometry width="50" height="50" relative="1" as="geometry">
            <mxPoint x="631" y="230" as="sourcePoint" />
            <mxPoint x="684" y="230" as="targetPoint" />
          </mxGeometry>
        </mxCell>
        <mxCell id="Sh905TkL9wa8EV8ZEFPq-29" value="" style="endArrow=classic;html=1;rounded=0;fillColor=#dae8fc;strokeColor=#6c8ebf;strokeWidth=2;" edge="1" parent="1">
          <mxGeometry width="50" height="50" relative="1" as="geometry">
            <mxPoint x="631" y="145" as="sourcePoint" />
            <mxPoint x="687" y="145" as="targetPoint" />
          </mxGeometry>
        </mxCell>
        <mxCell id="Sh905TkL9wa8EV8ZEFPq-30" value="" style="endArrow=none;html=1;rounded=0;fillColor=#dae8fc;strokeColor=#6c8ebf;strokeWidth=2;" edge="1" parent="1">
          <mxGeometry width="50" height="50" relative="1" as="geometry">
            <mxPoint x="630" y="309" as="sourcePoint" />
            <mxPoint x="630" y="144" as="targetPoint" />
          </mxGeometry>
        </mxCell>
        <mxCell id="Sh905TkL9wa8EV8ZEFPq-31" value=".py" style="shadow=0;dashed=0;html=1;strokeColor=none;fillColor=#4495D1;labelPosition=center;verticalLabelPosition=middle;verticalAlign=middle;align=center;outlineConnect=0;shape=mxgraph.veeam.2d.file;fontFamily=Times New Roman;" vertex="1" parent="1">
          <mxGeometry x="885" y="284" width="38" height="50.4" as="geometry" />
        </mxCell>
        <mxCell id="Sh905TkL9wa8EV8ZEFPq-35" value="" style="edgeStyle=elbowEdgeStyle;fontSize=12;html=1;endArrow=blockThin;endFill=1;rounded=0;fillColor=#dae8fc;strokeColor=#6c8ebf;strokeWidth=2;elbow=vertical;entryX=0;entryY=0.5;entryDx=0;entryDy=0;" edge="1" parent="1" target="Sh905TkL9wa8EV8ZEFPq-45">
          <mxGeometry width="160" relative="1" as="geometry">
            <mxPoint x="727" y="145" as="sourcePoint" />
            <mxPoint x="850" y="145.50000000000006" as="targetPoint" />
          </mxGeometry>
        </mxCell>
        <mxCell id="Sh905TkL9wa8EV8ZEFPq-57" value="&lt;font style=&quot;font-size: 13px;&quot; face=&quot;Times New Roman&quot;&gt;Merged&lt;/font&gt;" style="edgeLabel;html=1;align=center;verticalAlign=middle;resizable=0;points=[];" vertex="1" connectable="0" parent="Sh905TkL9wa8EV8ZEFPq-35">
          <mxGeometry x="0.3065" relative="1" as="geometry">
            <mxPoint x="4" as="offset" />
          </mxGeometry>
        </mxCell>
        <mxCell id="Sh905TkL9wa8EV8ZEFPq-40" value="" style="edgeStyle=elbowEdgeStyle;fontSize=12;html=1;endArrow=blockThin;endFill=1;rounded=0;fillColor=#dae8fc;strokeColor=#6c8ebf;strokeWidth=2;entryX=0.487;entryY=0;entryDx=0;entryDy=0;entryPerimeter=0;" edge="1" parent="1" target="Sh905TkL9wa8EV8ZEFPq-31">
          <mxGeometry width="160" relative="1" as="geometry">
            <mxPoint x="904" y="196" as="sourcePoint" />
            <mxPoint x="903.5" y="250" as="targetPoint" />
            <Array as="points">
              <mxPoint x="904" y="285" />
            </Array>
          </mxGeometry>
        </mxCell>
        <mxCell id="Sh905TkL9wa8EV8ZEFPq-41" value="" style="edgeStyle=elbowEdgeStyle;fontSize=12;html=1;endArrow=blockThin;endFill=1;rounded=0;fillColor=#dae8fc;strokeColor=#6c8ebf;strokeWidth=2;" edge="1" parent="1" source="Sh905TkL9wa8EV8ZEFPq-31">
          <mxGeometry width="160" relative="1" as="geometry">
            <mxPoint x="903.5" y="337.4" as="sourcePoint" />
            <mxPoint x="904" y="383.4" as="targetPoint" />
          </mxGeometry>
        </mxCell>
        <mxCell id="Sh905TkL9wa8EV8ZEFPq-43" value="odia_corpus" style="shape=image;html=1;verticalAlign=top;verticalLabelPosition=bottom;labelBackgroundColor=#ffffff;imageAspect=0;image=https://cdn2.iconfinder.com/data/icons/boxicons-solid-vol-2/24/bxs-file-txt-128.png;imageBackground=none;" vertex="1" parent="1">
          <mxGeometry x="561" y="287" width="38" height="50.4" as="geometry" />
        </mxCell>
        <mxCell id="Sh905TkL9wa8EV8ZEFPq-45" value="&lt;font style=&quot;font-size: 13px;&quot; face=&quot;Times New Roman&quot;&gt;german_corpus&lt;/font&gt;" style="shape=image;html=1;verticalAlign=top;verticalLabelPosition=bottom;labelBackgroundColor=#ffffff;imageAspect=0;image=https://cdn2.iconfinder.com/data/icons/boxicons-solid-vol-2/24/bxs-file-txt-128.png;imageBackground=none;" vertex="1" parent="1">
          <mxGeometry x="885" y="121" width="38" height="50.4" as="geometry" />
        </mxCell>
        <mxCell id="Sh905TkL9wa8EV8ZEFPq-46" value="raw_odia_data" style="shape=image;html=1;verticalAlign=top;verticalLabelPosition=bottom;labelBackgroundColor=#ffffff;imageAspect=0;image=https://cdn2.iconfinder.com/data/icons/boxicons-solid-vol-2/24/bxs-file-txt-128.png;imageBackground=none;" vertex="1" parent="1">
          <mxGeometry x="419" y="284" width="38" height="50.4" as="geometry" />
        </mxCell>
        <mxCell id="Sh905TkL9wa8EV8ZEFPq-48" value="&lt;font style=&quot;font-size: 13px;&quot; face=&quot;Times New Roman&quot;&gt;unidirectional_corpus&lt;/font&gt;" style="shape=image;html=1;verticalAlign=top;verticalLabelPosition=bottom;labelBackgroundColor=#ffffff;imageAspect=0;image=https://cdn2.iconfinder.com/data/icons/boxicons-solid-vol-2/24/bxs-file-json-128.png" vertex="1" parent="1">
          <mxGeometry x="885" y="380.8" width="38" height="50.4" as="geometry" />
        </mxCell>
        <mxCell id="Sh905TkL9wa8EV8ZEFPq-54" value="" style="endArrow=none;html=1;rounded=0;strokeWidth=2;fillColor=#dae8fc;strokeColor=#6c8ebf;" edge="1" parent="1" source="Sh905TkL9wa8EV8ZEFPq-21">
          <mxGeometry width="50" height="50" relative="1" as="geometry">
            <mxPoint x="746" y="231" as="sourcePoint" />
            <mxPoint x="805" y="145" as="targetPoint" />
            <Array as="points">
              <mxPoint x="805" y="231" />
            </Array>
          </mxGeometry>
        </mxCell>
        <mxCell id="Sh905TkL9wa8EV8ZEFPq-55" value="Manual Error Handling" style="edgeLabel;html=1;align=center;verticalAlign=middle;resizable=0;points=[];fontSize=13;fontFamily=Times New Roman;" vertex="1" connectable="0" parent="Sh905TkL9wa8EV8ZEFPq-54">
          <mxGeometry x="0.269" y="1" relative="1" as="geometry">
            <mxPoint as="offset" />
          </mxGeometry>
        </mxCell>
        <mxCell id="Sh905TkL9wa8EV8ZEFPq-58" value="&lt;font style=&quot;font-size: 13px;&quot; face=&quot;Times New Roman&quot;&gt;final_unidirectional_corpus&lt;/font&gt;" style="shape=image;html=1;verticalAlign=top;verticalLabelPosition=bottom;labelBackgroundColor=#ffffff;imageAspect=0;image=https://cdn2.iconfinder.com/data/icons/boxicons-solid-vol-2/24/bxs-file-json-128.png" vertex="1" parent="1">
          <mxGeometry x="727" y="380.8" width="38" height="50.4" as="geometry" />
        </mxCell>
        <mxCell id="Sh905TkL9wa8EV8ZEFPq-59" value="" style="edgeStyle=elbowEdgeStyle;fontSize=12;html=1;endArrow=blockThin;endFill=1;rounded=0;fillColor=#dae8fc;strokeColor=#6c8ebf;strokeWidth=2;elbow=vertical;" edge="1" parent="1">
          <mxGeometry width="160" relative="1" as="geometry">
            <mxPoint x="885" y="409" as="sourcePoint" />
            <mxPoint x="762" y="409" as="targetPoint" />
          </mxGeometry>
        </mxCell>
        <mxCell id="Sh905TkL9wa8EV8ZEFPq-60" value="&lt;font style=&quot;font-size: 13px;&quot; face=&quot;Times New Roman&quot;&gt;Manual Filling&lt;/font&gt;&lt;div&gt;&lt;font style=&quot;font-size: 13px;&quot; face=&quot;Times New Roman&quot;&gt;Metadata&lt;/font&gt;&lt;/div&gt;" style="edgeLabel;html=1;align=center;verticalAlign=middle;resizable=0;points=[];" vertex="1" connectable="0" parent="Sh905TkL9wa8EV8ZEFPq-59">
          <mxGeometry x="0.2195" relative="1" as="geometry">
            <mxPoint x="15" y="-1" as="offset" />
          </mxGeometry>
        </mxCell>
        <mxCell id="Sh905TkL9wa8EV8ZEFPq-61" value=".py" style="shadow=0;dashed=0;html=1;strokeColor=none;fillColor=#4495D1;labelPosition=center;verticalLabelPosition=middle;verticalAlign=middle;align=center;outlineConnect=0;shape=mxgraph.veeam.2d.file;fontFamily=Times New Roman;" vertex="1" parent="1">
          <mxGeometry x="608" y="384" width="38" height="50.4" as="geometry" />
        </mxCell>
        <mxCell id="Sh905TkL9wa8EV8ZEFPq-65" value="" style="endArrow=classic;html=1;rounded=0;fillColor=#dae8fc;strokeColor=#6c8ebf;strokeWidth=2;" edge="1" parent="1" target="Sh905TkL9wa8EV8ZEFPq-61">
          <mxGeometry width="50" height="50" relative="1" as="geometry">
            <mxPoint x="727" y="409" as="sourcePoint" />
            <mxPoint x="555" y="298" as="targetPoint" />
          </mxGeometry>
        </mxCell>
        <mxCell id="Sh905TkL9wa8EV8ZEFPq-66" value="" style="endArrow=classic;html=1;rounded=0;fillColor=#dae8fc;strokeColor=#6c8ebf;strokeWidth=2;" edge="1" parent="1" source="Sh905TkL9wa8EV8ZEFPq-61">
          <mxGeometry width="50" height="50" relative="1" as="geometry">
            <mxPoint x="624" y="445" as="sourcePoint" />
            <mxPoint x="627" y="512" as="targetPoint" />
          </mxGeometry>
        </mxCell>
        <mxCell id="Sh905TkL9wa8EV8ZEFPq-67" value="&lt;font style=&quot;font-size: 13px;&quot; face=&quot;Times New Roman&quot;&gt;final_bidirectional_corpus&lt;/font&gt;" style="shape=image;html=1;verticalAlign=top;verticalLabelPosition=bottom;labelBackgroundColor=#ffffff;imageAspect=0;image=https://cdn2.iconfinder.com/data/icons/boxicons-solid-vol-2/24/bxs-file-json-128.png" vertex="1" parent="1">
          <mxGeometry x="608" y="515" width="38" height="50.4" as="geometry" />
        </mxCell>
        <mxCell id="eJN8SRspl8KUviiAl16v-1" value="" style="edgeStyle=elbowEdgeStyle;elbow=horizontal;endArrow=classic;html=1;curved=0;rounded=0;endSize=8;startSize=8;strokeWidth=2;fillColor=#dae8fc;strokeColor=#6c8ebf;" edge="1" parent="1">
          <mxGeometry width="50" height="50" relative="1" as="geometry">
            <mxPoint x="641" y="547" as="sourcePoint" />
            <mxPoint x="786" y="492" as="targetPoint" />
            <Array as="points">
              <mxPoint x="741" y="549" />
            </Array>
          </mxGeometry>
        </mxCell>
        <mxCell id="eJN8SRspl8KUviiAl16v-3" value="" style="edgeStyle=segmentEdgeStyle;endArrow=classic;html=1;curved=0;rounded=0;endSize=8;startSize=8;strokeWidth=2;fillColor=#dae8fc;strokeColor=#6c8ebf;" edge="1" parent="1" target="eJN8SRspl8KUviiAl16v-9">
          <mxGeometry width="50" height="50" relative="1" as="geometry">
            <mxPoint x="741" y="540" as="sourcePoint" />
            <mxPoint x="787" y="590" as="targetPoint" />
            <Array as="points">
              <mxPoint x="741" y="602" />
            </Array>
          </mxGeometry>
        </mxCell>
        <mxCell id="eJN8SRspl8KUviiAl16v-4" value="" style="endArrow=classic;html=1;rounded=0;fillColor=#dae8fc;strokeColor=#6c8ebf;strokeWidth=2;" edge="1" parent="1">
          <mxGeometry width="50" height="50" relative="1" as="geometry">
            <mxPoint x="740" y="547" as="sourcePoint" />
            <mxPoint x="785" y="547" as="targetPoint" />
          </mxGeometry>
        </mxCell>
        <mxCell id="eJN8SRspl8KUviiAl16v-7" value="train (80%)" style="sketch=0;outlineConnect=0;fontColor=#232F3E;gradientColor=none;fillColor=#7AA116;strokeColor=none;dashed=0;verticalLabelPosition=bottom;verticalAlign=top;align=center;html=1;fontSize=12;fontStyle=0;pointerEvents=1;shape=mxgraph.aws4.data_set;" vertex="1" parent="1">
          <mxGeometry x="788" y="480" width="20" height="27" as="geometry" />
        </mxCell>
        <mxCell id="eJN8SRspl8KUviiAl16v-8" value="validation (10%)" style="sketch=0;outlineConnect=0;fontColor=#232F3E;gradientColor=none;fillColor=#7AA116;strokeColor=none;dashed=0;verticalLabelPosition=bottom;verticalAlign=top;align=center;html=1;fontSize=12;fontStyle=0;pointerEvents=1;shape=mxgraph.aws4.data_set;" vertex="1" parent="1">
          <mxGeometry x="788" y="534" width="20" height="27" as="geometry" />
        </mxCell>
        <mxCell id="eJN8SRspl8KUviiAl16v-9" value="test (10%)" style="sketch=0;outlineConnect=0;fontColor=#232F3E;gradientColor=none;fillColor=#7AA116;strokeColor=none;dashed=0;verticalLabelPosition=bottom;verticalAlign=top;align=center;html=1;fontSize=12;fontStyle=0;pointerEvents=1;shape=mxgraph.aws4.data_set;" vertex="1" parent="1">
          <mxGeometry x="790" y="588" width="20" height="27" as="geometry" />
        </mxCell>
      </root>
    </mxGraphModel>
  </diagram>
</mxfile>
